<svg xmlns="http://www.w3.org/2000/svg" width="31" height="40" viewBox="0 0 31 40" fill="none">
<path opacity="0.47" d="M29.151 18.373L22.13 13.743L2.886 1.90098C4.33683 3.52999 5.47 5.41612 6.227 7.46198C6.73316 8.78824 7.08514 10.1683 7.276 11.575L21.7 20.618C21.9577 20.7961 22.134 21.0692 22.1903 21.3773C22.2465 21.6855 22.1781 22.0033 22 22.261L21.946 22.33L21.892 22.392L21.83 22.454H21.8L21.7 22.531L7.762 31.019C7.67116 31.0811 7.56892 31.1245 7.46118 31.1469C7.35345 31.1692 7.24235 31.17 7.13431 31.1492C7.02627 31.1284 6.92342 31.0863 6.83172 31.0255C6.74001 30.9647 6.66125 30.8864 6.6 30.795C6.50545 30.656 6.45429 30.4921 6.453 30.324V10.965C6.25798 9.77034 5.94512 8.59795 5.519 7.46498C4.51412 4.66078 2.76326 2.18386 0.455 0.300977L0 0.000976562V36.435C0.00148232 37.0786 0.176856 37.7099 0.507581 38.2621C0.838306 38.8143 1.31209 39.2669 1.87884 39.572C2.4456 39.8771 3.08426 40.0234 3.72731 39.9954C4.37036 39.9674 4.9939 39.7662 5.532 39.413L29.151 24.692C29.6746 24.3478 30.1045 23.8789 30.4019 23.3274C30.6994 22.7759 30.8551 22.1591 30.8551 21.5325C30.8551 20.9059 30.6994 20.2891 30.4019 19.7376C30.1045 19.1861 29.6746 18.7172 29.151 18.373Z" fill="#5690FF"/>
<path d="M29.151 18.373L22.13 13.743C22.6896 14.1973 23.1538 14.7579 23.4957 15.3925C23.8377 16.027 24.0507 16.723 24.1224 17.4402C24.1942 18.1575 24.1233 18.8819 23.9139 19.5716C23.7044 20.2613 23.3605 20.9028 22.902 21.459C22.6308 21.7953 22.3199 22.0975 21.976 22.359L21.922 22.421L21.86 22.483L21.76 22.56L11.729 28.47L7.87 31.081C7.77795 31.1528 7.67185 31.2044 7.55857 31.2325C7.44529 31.2607 7.32735 31.2647 7.21242 31.2443C7.09749 31.2239 6.98812 31.1797 6.8914 31.1143C6.79468 31.049 6.71278 30.964 6.651 30.865C6.55645 30.726 6.50529 30.5621 6.504 30.394V11.001C6.29549 9.79249 5.96445 8.60838 5.516 7.46698C4.51227 4.6624 2.76245 2.18479 0.455 0.300977L0 0.000976562V36.435C0.00148232 37.0786 0.176856 37.7099 0.507581 38.2621C0.838306 38.8143 1.31209 39.2669 1.87884 39.572C2.4456 39.8771 3.08426 40.0234 3.72731 39.9954C4.37036 39.9674 4.9939 39.7662 5.532 39.413L29.151 24.692C29.6746 24.3478 30.1045 23.8789 30.4019 23.3274C30.6994 22.7759 30.8551 22.1591 30.8551 21.5325C30.8551 20.9059 30.6994 20.2891 30.4019 19.7376C30.1045 19.1861 29.6746 18.7172 29.151 18.373Z" fill="url(#paint0_linear_2_14093)"/>
<defs>
<linearGradient id="paint0_linear_2_14093" x1="0" y1="19.9999" x2="30.8551" y2="19.9999" gradientUnits="userSpaceOnUse">
<stop stop-color="#5690FF" stop-opacity="0.988"/>
<stop offset="1" stop-color="#0052E0"/>
</linearGradient>
</defs>
</svg>